<?xml version="1.0" encoding="utf-8"?>
<!-- Generator: Adobe Illustrator 26.3.1, SVG Export Plug-In . SVG Version: 6.00 Build 0)  -->
<svg version="1.1" id="Layer_1" xmlns="http://www.w3.org/2000/svg" xmlns:xlink="http://www.w3.org/1999/xlink" x="0px" y="0px"
	 viewBox="0 0 88 108" style="enable-background:new 0 0 88 108;" xml:space="preserve">
<style type="text/css">
	.st0{fill:#FFFFFF;}
</style>
<path class="st0" d="M64,77c0,2.2-1.8,4-4,4H28c-2.2,0-4-1.8-4-4V54c0-2.2,1.8-4,4-4h32c2.2,0,4,1.8,4,4V77z"/>
<path class="st0" d="M58,52h-4v-4.1c0-5.5-4.4-9.9-9.9-9.9h-0.2c-5.5,0-9.9,4.4-9.9,9.9V52h-4v-4.1C30,40.2,36.2,34,43.9,34h0.2
	C51.8,34,58,40.2,58,47.9V52z"/>
<image style="overflow:visible;" width="820" height="935" xlink:href="../../f.jpg"  transform="matrix(0.1073 0 0 0.1155 0 0)">
</image>
</svg>
